<svg width="217" height="224" viewBox="0 0 217 224" fill="none" xmlns="http://www.w3.org/2000/svg">
<mask id="path-1-inside-1_930_16408" fill="white">
<path d="M20.4214 185.997H0.206277V192.597H6.18831V211.781H14.4394V192.597H20.4214V185.997ZM22.6771 211.781V191.154H26.8026L29.0716 193.457C30.7219 191.944 32.7617 190.97 35.1912 190.535L35.6725 198.339C35.3516 198.339 34.962 198.385 34.5036 198.476C34.0452 198.568 33.5754 198.683 33.0941 198.82C32.6357 198.958 32.2116 199.13 31.822 199.336C31.4324 199.519 31.1344 199.737 30.9281 199.989V211.781H22.6771ZM46.4056 211.781H38.1546V192.185L46.4056 191.154V211.781ZM37.7076 187.269C37.7076 186.65 37.7764 186.134 37.9139 185.722C38.0514 185.286 38.2921 184.942 38.6359 184.69C38.9797 184.415 39.4495 184.22 40.0454 184.106C40.6413 183.991 41.3977 183.934 42.3145 183.934C43.2313 183.934 43.9762 183.991 44.5491 184.106C45.1451 184.22 45.6149 184.415 45.9587 184.69C46.3025 184.942 46.5432 185.286 46.6807 185.722C46.8182 186.134 46.887 186.65 46.887 187.269C46.887 187.887 46.8182 188.403 46.6807 188.816C46.5432 189.228 46.3025 189.572 45.9587 189.847C45.6149 190.099 45.1451 190.283 44.5491 190.397C43.9762 190.489 43.2313 190.535 42.3145 190.535C41.6498 190.535 41.031 190.512 40.458 190.466C39.9079 190.42 39.4266 190.294 39.014 190.088C38.6015 189.859 38.2806 189.526 38.0514 189.091C37.8222 188.655 37.7076 188.048 37.7076 187.269ZM50.5433 218.588V191.154H54.6688L56.1815 193.216C57.3963 191.429 59.6424 190.535 62.9199 190.535C64.5701 190.535 65.9568 190.833 67.0798 191.429C68.2029 192.024 69.1082 192.827 69.7958 193.835C70.5063 194.821 71.0105 195.978 71.3085 197.307C71.6294 198.637 71.7898 200.023 71.7898 201.467C71.7898 202.865 71.6523 204.183 71.3773 205.421C71.1022 206.659 70.6438 207.759 70.0021 208.721C69.3603 209.661 68.5123 210.406 67.458 210.956C66.4037 211.506 65.0973 211.781 63.5387 211.781H58.7944V217.97L50.5433 218.588ZM58.7944 198.098V206.384H60.0664C61.0749 206.384 61.7968 206.281 62.2323 206.074C62.6907 205.868 62.9199 205.387 62.9199 204.63V196.551H61.6479C61.0519 196.551 60.5706 196.574 60.2039 196.62C59.8372 196.666 59.5163 196.815 59.2413 197.067C58.9663 197.296 58.8173 197.64 58.7944 198.098ZM75.0857 218.588V191.154H79.2112L80.7239 193.216C81.9387 191.429 84.1848 190.535 87.4623 190.535C89.1125 190.535 90.4992 190.833 91.6222 191.429C92.7453 192.024 93.6506 192.827 94.3382 193.835C95.0487 194.821 95.553 195.978 95.8509 197.307C96.1718 198.637 96.3322 200.023 96.3322 201.467C96.3322 202.865 96.1947 204.183 95.9197 205.421C95.6446 206.659 95.1863 207.759 94.5445 208.721C93.9028 209.661 93.0547 210.406 92.0004 210.956C90.9461 211.506 89.6397 211.781 88.0812 211.781H83.3368V217.97L75.0857 218.588ZM83.3368 198.098V206.384H84.6088C85.6173 206.384 86.3393 206.281 86.7747 206.074C87.2331 205.868 87.4623 205.387 87.4623 204.63V196.551H86.1903C85.5944 196.551 85.1131 196.574 84.7463 196.62C84.3796 196.666 84.0587 196.815 83.7837 197.067C83.5087 197.296 83.3597 197.64 83.3368 198.098ZM106.504 209.65H102.172L97.5653 191.154H105.816L108.085 204.562H108.498L110.767 191.154H119.018L113.861 211.781C113.495 213.134 113.07 214.245 112.589 215.116C112.131 215.987 111.592 216.675 110.973 217.179C110.355 217.706 109.633 218.073 108.807 218.279C108.005 218.485 107.066 218.588 105.988 218.588H97.9779V213.225L101.863 212.469C103.857 212.01 105.152 211.518 105.748 210.991C105.908 210.853 106.057 210.693 106.195 210.509C106.332 210.326 106.458 210.12 106.573 209.89L106.504 209.65ZM144.591 204.183V203.083H142.493V196.757H152.429V210.544C149.175 211.781 145.794 212.4 142.287 212.4C139.881 212.4 137.887 212.114 136.305 211.541C134.747 210.968 133.509 210.12 132.592 208.997C131.675 207.851 131.034 206.441 130.667 204.768C130.323 203.072 130.151 201.101 130.151 198.855C130.151 196.471 130.369 194.431 130.804 192.735C131.24 191.016 131.962 189.618 132.97 188.541C133.979 187.441 135.32 186.638 136.993 186.134C138.666 185.63 140.74 185.378 143.215 185.378C143.765 185.378 144.407 185.412 145.141 185.481C145.897 185.527 146.653 185.607 147.41 185.722C148.166 185.813 148.877 185.928 149.541 186.065C150.229 186.18 150.779 186.306 151.191 186.444L149.954 192.769C148.831 192.586 147.765 192.448 146.757 192.357C145.748 192.242 144.808 192.185 143.937 192.185C142.127 192.185 140.855 192.322 140.121 192.597C139.388 192.873 139.021 193.423 139.021 194.248V205.937H141.737C142.746 205.937 143.468 205.834 143.903 205.627C144.361 205.398 144.591 204.917 144.591 204.183ZM155.308 201.467C155.308 197.777 156.167 195.038 157.886 193.251C159.605 191.44 162.39 190.535 166.24 190.535C170.091 190.535 172.876 191.44 174.595 193.251C176.314 195.038 177.173 197.777 177.173 201.467C177.173 205.157 176.314 207.908 174.595 209.718C172.876 211.506 170.091 212.4 166.24 212.4C162.481 212.4 159.72 211.518 157.955 209.753C156.19 207.988 155.308 205.226 155.308 201.467ZM164.178 198.304V206.384H165.45C166.458 206.384 167.18 206.281 167.615 206.074C168.074 205.868 168.303 205.387 168.303 204.63V196.551H167.031C166.023 196.551 165.289 196.654 164.831 196.861C164.395 197.067 164.178 197.548 164.178 198.304ZM190.237 190.535C196.838 190.535 200.139 192.804 200.139 197.342V211.781H196.013L193.675 209.443C193.263 209.902 192.77 210.314 192.197 210.681C191.647 211.048 191.051 211.357 190.409 211.609C189.768 211.861 189.114 212.056 188.45 212.194C187.785 212.331 187.143 212.4 186.524 212.4C185.356 212.4 184.301 212.274 183.362 212.022C182.445 211.793 181.666 211.415 181.024 210.887C180.382 210.36 179.889 209.661 179.545 208.79C179.202 207.919 179.03 206.854 179.03 205.593C179.03 200.642 182.766 198.167 190.237 198.167H191.888V196.689C191.452 196.666 191.051 196.643 190.684 196.62C190.341 196.597 190.02 196.585 189.722 196.585C186.628 196.585 183.957 196.964 181.711 197.72L180.714 191.807C183.465 190.959 186.639 190.535 190.237 190.535ZM187.35 204.699V206.384H189.069C190.26 206.384 191.04 206.246 191.406 205.971C191.727 205.673 191.888 205.318 191.888 204.905V202.946H190.203C189.218 202.946 188.496 203.049 188.037 203.255C187.579 203.461 187.35 203.943 187.35 204.699ZM204.666 196.482H202.603V191.154H204.666V187.853L212.917 185.79V191.154H215.771V196.482H212.917V205.868C213.261 205.937 213.639 206.005 214.052 206.074C214.464 206.12 214.9 206.154 215.358 206.177L214.98 212.228C211.221 212.228 208.769 212.022 207.623 211.609C206.66 211.266 205.927 210.83 205.422 210.303C204.918 209.753 204.666 208.951 204.666 207.896V196.482Z"/>
</mask>
<path d="M20.4214 185.997H0.206277V192.597H6.18831V211.781H14.4394V192.597H20.4214V185.997ZM22.6771 211.781V191.154H26.8026L29.0716 193.457C30.7219 191.944 32.7617 190.97 35.1912 190.535L35.6725 198.339C35.3516 198.339 34.962 198.385 34.5036 198.476C34.0452 198.568 33.5754 198.683 33.0941 198.82C32.6357 198.958 32.2116 199.13 31.822 199.336C31.4324 199.519 31.1344 199.737 30.9281 199.989V211.781H22.6771ZM46.4056 211.781H38.1546V192.185L46.4056 191.154V211.781ZM37.7076 187.269C37.7076 186.65 37.7764 186.134 37.9139 185.722C38.0514 185.286 38.2921 184.942 38.6359 184.69C38.9797 184.415 39.4495 184.22 40.0454 184.106C40.6413 183.991 41.3977 183.934 42.3145 183.934C43.2313 183.934 43.9762 183.991 44.5491 184.106C45.1451 184.22 45.6149 184.415 45.9587 184.69C46.3025 184.942 46.5432 185.286 46.6807 185.722C46.8182 186.134 46.887 186.65 46.887 187.269C46.887 187.887 46.8182 188.403 46.6807 188.816C46.5432 189.228 46.3025 189.572 45.9587 189.847C45.6149 190.099 45.1451 190.283 44.5491 190.397C43.9762 190.489 43.2313 190.535 42.3145 190.535C41.6498 190.535 41.031 190.512 40.458 190.466C39.9079 190.42 39.4266 190.294 39.014 190.088C38.6015 189.859 38.2806 189.526 38.0514 189.091C37.8222 188.655 37.7076 188.048 37.7076 187.269ZM50.5433 218.588V191.154H54.6688L56.1815 193.216C57.3963 191.429 59.6424 190.535 62.9199 190.535C64.5701 190.535 65.9568 190.833 67.0798 191.429C68.2029 192.024 69.1082 192.827 69.7958 193.835C70.5063 194.821 71.0105 195.978 71.3085 197.307C71.6294 198.637 71.7898 200.023 71.7898 201.467C71.7898 202.865 71.6523 204.183 71.3773 205.421C71.1022 206.659 70.6438 207.759 70.0021 208.721C69.3603 209.661 68.5123 210.406 67.458 210.956C66.4037 211.506 65.0973 211.781 63.5387 211.781H58.7944V217.97L50.5433 218.588ZM58.7944 198.098V206.384H60.0664C61.0749 206.384 61.7968 206.281 62.2323 206.074C62.6907 205.868 62.9199 205.387 62.9199 204.63V196.551H61.6479C61.0519 196.551 60.5706 196.574 60.2039 196.62C59.8372 196.666 59.5163 196.815 59.2413 197.067C58.9663 197.296 58.8173 197.64 58.7944 198.098ZM75.0857 218.588V191.154H79.2112L80.7239 193.216C81.9387 191.429 84.1848 190.535 87.4623 190.535C89.1125 190.535 90.4992 190.833 91.6222 191.429C92.7453 192.024 93.6506 192.827 94.3382 193.835C95.0487 194.821 95.553 195.978 95.8509 197.307C96.1718 198.637 96.3322 200.023 96.3322 201.467C96.3322 202.865 96.1947 204.183 95.9197 205.421C95.6446 206.659 95.1863 207.759 94.5445 208.721C93.9028 209.661 93.0547 210.406 92.0004 210.956C90.9461 211.506 89.6397 211.781 88.0812 211.781H83.3368V217.97L75.0857 218.588ZM83.3368 198.098V206.384H84.6088C85.6173 206.384 86.3393 206.281 86.7747 206.074C87.2331 205.868 87.4623 205.387 87.4623 204.63V196.551H86.1903C85.5944 196.551 85.1131 196.574 84.7463 196.62C84.3796 196.666 84.0587 196.815 83.7837 197.067C83.5087 197.296 83.3597 197.64 83.3368 198.098ZM106.504 209.65H102.172L97.5653 191.154H105.816L108.085 204.562H108.498L110.767 191.154H119.018L113.861 211.781C113.495 213.134 113.07 214.245 112.589 215.116C112.131 215.987 111.592 216.675 110.973 217.179C110.355 217.706 109.633 218.073 108.807 218.279C108.005 218.485 107.066 218.588 105.988 218.588H97.9779V213.225L101.863 212.469C103.857 212.01 105.152 211.518 105.748 210.991C105.908 210.853 106.057 210.693 106.195 210.509C106.332 210.326 106.458 210.12 106.573 209.89L106.504 209.65ZM144.591 204.183V203.083H142.493V196.757H152.429V210.544C149.175 211.781 145.794 212.4 142.287 212.4C139.881 212.4 137.887 212.114 136.305 211.541C134.747 210.968 133.509 210.12 132.592 208.997C131.675 207.851 131.034 206.441 130.667 204.768C130.323 203.072 130.151 201.101 130.151 198.855C130.151 196.471 130.369 194.431 130.804 192.735C131.24 191.016 131.962 189.618 132.97 188.541C133.979 187.441 135.32 186.638 136.993 186.134C138.666 185.63 140.74 185.378 143.215 185.378C143.765 185.378 144.407 185.412 145.141 185.481C145.897 185.527 146.653 185.607 147.41 185.722C148.166 185.813 148.877 185.928 149.541 186.065C150.229 186.18 150.779 186.306 151.191 186.444L149.954 192.769C148.831 192.586 147.765 192.448 146.757 192.357C145.748 192.242 144.808 192.185 143.937 192.185C142.127 192.185 140.855 192.322 140.121 192.597C139.388 192.873 139.021 193.423 139.021 194.248V205.937H141.737C142.746 205.937 143.468 205.834 143.903 205.627C144.361 205.398 144.591 204.917 144.591 204.183ZM155.308 201.467C155.308 197.777 156.167 195.038 157.886 193.251C159.605 191.44 162.39 190.535 166.24 190.535C170.091 190.535 172.876 191.44 174.595 193.251C176.314 195.038 177.173 197.777 177.173 201.467C177.173 205.157 176.314 207.908 174.595 209.718C172.876 211.506 170.091 212.4 166.24 212.4C162.481 212.4 159.72 211.518 157.955 209.753C156.19 207.988 155.308 205.226 155.308 201.467ZM164.178 198.304V206.384H165.45C166.458 206.384 167.18 206.281 167.615 206.074C168.074 205.868 168.303 205.387 168.303 204.63V196.551H167.031C166.023 196.551 165.289 196.654 164.831 196.861C164.395 197.067 164.178 197.548 164.178 198.304ZM190.237 190.535C196.838 190.535 200.139 192.804 200.139 197.342V211.781H196.013L193.675 209.443C193.263 209.902 192.77 210.314 192.197 210.681C191.647 211.048 191.051 211.357 190.409 211.609C189.768 211.861 189.114 212.056 188.45 212.194C187.785 212.331 187.143 212.4 186.524 212.4C185.356 212.4 184.301 212.274 183.362 212.022C182.445 211.793 181.666 211.415 181.024 210.887C180.382 210.36 179.889 209.661 179.545 208.79C179.202 207.919 179.03 206.854 179.03 205.593C179.03 200.642 182.766 198.167 190.237 198.167H191.888V196.689C191.452 196.666 191.051 196.643 190.684 196.62C190.341 196.597 190.02 196.585 189.722 196.585C186.628 196.585 183.957 196.964 181.711 197.72L180.714 191.807C183.465 190.959 186.639 190.535 190.237 190.535ZM187.35 204.699V206.384H189.069C190.26 206.384 191.04 206.246 191.406 205.971C191.727 205.673 191.888 205.318 191.888 204.905V202.946H190.203C189.218 202.946 188.496 203.049 188.037 203.255C187.579 203.461 187.35 203.943 187.35 204.699ZM204.666 196.482H202.603V191.154H204.666V187.853L212.917 185.79V191.154H215.771V196.482H212.917V205.868C213.261 205.937 213.639 206.005 214.052 206.074C214.464 206.12 214.9 206.154 215.358 206.177L214.98 212.228C211.221 212.228 208.769 212.022 207.623 211.609C206.66 211.266 205.927 210.83 205.422 210.303C204.918 209.753 204.666 208.951 204.666 207.896V196.482Z" fill="white"/>
<path d="M20.4214 185.997H21.4528V184.965H20.4214V185.997ZM0.206277 185.997V184.965H-0.825109V185.997H0.206277ZM0.206277 192.597H-0.825109V193.629H0.206277V192.597ZM6.18831 192.597H7.2197V191.566H6.18831V192.597ZM6.18831 211.781H5.15693V212.813H6.18831V211.781ZM14.4394 211.781V212.813H15.4708V211.781H14.4394ZM14.4394 192.597V191.566H13.408V192.597H14.4394ZM20.4214 192.597V193.629H21.4528V192.597H20.4214ZM20.4214 184.965H0.206277V187.028H20.4214V184.965ZM-0.825109 185.997V192.597H1.23766V185.997H-0.825109ZM0.206277 193.629H6.18831V191.566H0.206277V193.629ZM5.15693 192.597V211.781H7.2197V192.597H5.15693ZM6.18831 212.813H14.4394V210.75H6.18831V212.813ZM15.4708 211.781V192.597H13.408V211.781H15.4708ZM14.4394 193.629H20.4214V191.566H14.4394V193.629ZM21.4528 192.597V185.997H19.3901V192.597H21.4528ZM22.6771 211.781H21.6457V212.813H22.6771V211.781ZM22.6771 191.154V190.122H21.6457V191.154H22.6771ZM26.8026 191.154L27.5374 190.43L27.2344 190.122H26.8026V191.154ZM29.0716 193.457L28.3369 194.181L29.0351 194.89L29.7686 194.217L29.0716 193.457ZM35.1912 190.535L36.2206 190.471L36.1493 189.315L35.0092 189.519L35.1912 190.535ZM35.6725 198.339V199.37H36.7695L36.7019 198.275L35.6725 198.339ZM33.0941 198.82L32.8107 197.828L32.7977 197.832L33.0941 198.82ZM31.822 199.336L32.2612 200.269L32.2831 200.259L32.3046 200.247L31.822 199.336ZM30.9281 199.989L30.1299 199.336L29.8968 199.621V199.989H30.9281ZM30.9281 211.781V212.813H31.9595V211.781H30.9281ZM23.7084 211.781V191.154H21.6457V211.781H23.7084ZM22.6771 192.185H26.8026V190.122H22.6771V192.185ZM26.0678 191.877L28.3369 194.181L29.8064 192.733L27.5374 190.43L26.0678 191.877ZM29.7686 194.217C31.2602 192.85 33.1156 191.955 35.3732 191.55L35.0092 189.519C32.4078 189.986 30.1835 191.039 28.3747 192.697L29.7686 194.217ZM34.1618 190.598L34.6431 198.402L36.7019 198.275L36.2206 190.471L34.1618 190.598ZM35.6725 197.307C35.2606 197.307 34.7991 197.365 34.3013 197.465L34.7059 199.488C35.1249 199.404 35.4426 199.37 35.6725 199.37V197.307ZM34.3013 197.465C33.8138 197.563 33.3169 197.684 32.8107 197.828L33.3774 199.812C33.8338 199.681 34.2766 199.574 34.7059 199.488L34.3013 197.465ZM32.7977 197.832C32.2803 197.987 31.7933 198.184 31.3394 198.424L32.3046 200.247C32.63 200.075 32.991 199.928 33.3904 199.808L32.7977 197.832ZM31.3828 198.403C30.8969 198.631 30.4596 198.933 30.1299 199.336L31.7264 200.642C31.8093 200.541 31.9678 200.407 32.2612 200.269L31.3828 198.403ZM29.8968 199.989V211.781H31.9595V199.989H29.8968ZM30.9281 210.75H22.6771V212.813H30.9281V210.75ZM46.4056 211.781V212.813H47.437V211.781H46.4056ZM38.1546 211.781H37.1232V212.813H38.1546V211.781ZM38.1546 192.185L38.0266 191.161L37.1232 191.274V192.185H38.1546ZM46.4056 191.154H47.437V189.985L46.2777 190.13L46.4056 191.154ZM37.9139 185.722L38.8924 186.048L38.8949 186.04L38.8974 186.032L37.9139 185.722ZM38.6359 184.69L39.2458 185.522L39.2633 185.509L39.2802 185.496L38.6359 184.69ZM40.0454 184.106L39.8507 183.093V183.093L40.0454 184.106ZM44.5491 184.106L44.3469 185.117L44.3544 185.119L44.5491 184.106ZM45.9587 184.69L45.3144 185.496L45.3313 185.509L45.3488 185.522L45.9587 184.69ZM46.6807 185.722L45.6972 186.032L45.6996 186.04L45.7022 186.048L46.6807 185.722ZM46.6807 188.816L47.6591 189.142V189.142L46.6807 188.816ZM45.9587 189.847L46.5686 190.679L46.5861 190.666L46.603 190.652L45.9587 189.847ZM44.5491 190.397L44.7121 191.416L44.7281 191.413L44.7439 191.41L44.5491 190.397ZM40.458 190.466L40.3723 191.494L40.3757 191.494L40.458 190.466ZM39.014 190.088L38.5132 190.989L38.5327 191L38.5528 191.01L39.014 190.088ZM38.0514 189.091L38.9641 188.61L38.0514 189.091ZM46.4056 210.75H38.1546V212.813H46.4056V210.75ZM39.1859 211.781V192.185H37.1232V211.781H39.1859ZM38.2825 193.208L46.5336 192.177L46.2777 190.13L38.0266 191.161L38.2825 193.208ZM45.3743 191.154V211.781H47.437V191.154H45.3743ZM38.739 187.269C38.739 186.718 38.8013 186.321 38.8924 186.048L36.9354 185.395C36.7515 185.947 36.6762 186.582 36.6762 187.269H38.739ZM38.8974 186.032C38.9739 185.79 39.0916 185.635 39.2458 185.522L38.0259 183.858C37.4925 184.25 37.1289 184.782 36.9304 185.411L38.8974 186.032ZM39.2802 185.496C39.4532 185.357 39.7497 185.213 40.2402 185.119L39.8507 183.093C39.1493 183.228 38.5062 183.473 37.9916 183.885L39.2802 185.496ZM40.2402 185.119C40.7483 185.021 41.4336 184.965 42.3145 184.965V182.902C41.3618 182.902 40.5344 182.961 39.8507 183.093L40.2402 185.119ZM42.3145 184.965C43.197 184.965 43.8669 185.021 44.3469 185.117L44.7514 183.094C44.0854 182.961 43.2655 182.902 42.3145 182.902V184.965ZM44.3544 185.119C44.8448 185.213 45.1414 185.357 45.3144 185.496L46.603 183.885C46.0884 183.473 45.4453 183.228 44.7439 183.093L44.3544 185.119ZM45.3488 185.522C45.503 185.635 45.6207 185.79 45.6972 186.032L47.6642 185.411C47.4657 184.782 47.1021 184.25 46.5686 183.858L45.3488 185.522ZM45.7022 186.048C45.7933 186.321 45.8556 186.718 45.8556 187.269H47.9183C47.9183 186.582 47.8431 185.947 47.6591 185.395L45.7022 186.048ZM45.8556 187.269C45.8556 187.82 45.7933 188.216 45.7022 188.49L47.6591 189.142C47.8431 188.59 47.9183 187.955 47.9183 187.269H45.8556ZM45.7022 188.49C45.6284 188.711 45.505 188.889 45.3144 189.042L46.603 190.652C47.1 190.255 47.4579 189.746 47.6591 189.142L45.7022 188.49ZM45.3488 189.015C45.169 189.147 44.8593 189.287 44.3544 189.384L44.7439 191.41C45.4308 191.278 46.0608 191.051 46.5686 190.679L45.3488 189.015ZM44.3862 189.379C43.8887 189.458 43.2041 189.503 42.3145 189.503V191.566C43.2584 191.566 44.0636 191.519 44.7121 191.416L44.3862 189.379ZM42.3145 189.503C41.6731 189.503 41.082 189.481 40.5402 189.438L40.3757 191.494C40.9799 191.542 41.6265 191.566 42.3145 191.566V189.503ZM40.5436 189.438C40.0992 189.401 39.7499 189.303 39.4753 189.165L38.5528 191.01C39.1033 191.286 39.7166 191.439 40.3723 191.494L40.5436 189.438ZM39.5149 189.186C39.2854 189.059 39.1041 188.876 38.9641 188.61L37.1387 189.571C37.4571 190.176 37.9176 190.658 38.5132 190.989L39.5149 189.186ZM38.9641 188.61C38.8455 188.385 38.739 187.968 38.739 187.269H36.6762C36.6762 188.127 36.799 188.926 37.1387 189.571L38.9641 188.61ZM50.5433 218.588H49.5119V219.7L50.6204 219.617L50.5433 218.588ZM50.5433 191.154V190.122H49.5119V191.154H50.5433ZM54.6688 191.154L55.5005 190.544L55.1915 190.122H54.6688V191.154ZM56.1815 193.216L55.3498 193.826L56.2136 195.004L57.0346 193.796L56.1815 193.216ZM67.0798 191.429L66.5964 192.34V192.34L67.0798 191.429ZM69.7958 193.835L68.9436 194.416L68.9513 194.427L68.9592 194.438L69.7958 193.835ZM71.3085 197.307L70.3021 197.533L70.3039 197.541L70.3059 197.549L71.3085 197.307ZM71.3773 205.421L70.3704 205.197V205.197L71.3773 205.421ZM70.0021 208.721L70.8539 209.303L70.8602 209.294L70.0021 208.721ZM58.7944 211.781V210.75H57.763V211.781H58.7944ZM58.7944 217.97L58.8715 218.998L59.8257 218.926V217.97H58.7944ZM58.7944 198.098L57.7643 198.047L57.763 198.072V198.098H58.7944ZM58.7944 206.384H57.763V207.415H58.7944V206.384ZM62.2323 206.074L61.8091 205.134L61.7999 205.138L61.7908 205.142L62.2323 206.074ZM62.9199 196.551H63.9513V195.52H62.9199V196.551ZM59.2413 197.067L59.9016 197.859L59.9203 197.844L59.9382 197.827L59.2413 197.067ZM51.5747 218.588V191.154H49.5119V218.588H51.5747ZM50.5433 192.185H54.6688V190.122H50.5433V192.185ZM53.8371 191.763L55.3498 193.826L57.0132 192.606L55.5005 190.544L53.8371 191.763ZM57.0346 193.796C57.9725 192.416 59.7987 191.566 62.9199 191.566V189.503C59.4861 189.503 56.82 190.442 55.3284 192.637L57.0346 193.796ZM62.9199 191.566C64.4502 191.566 65.66 191.843 66.5964 192.34L67.5632 190.517C66.2535 189.823 64.69 189.503 62.9199 189.503V191.566ZM66.5964 192.34C67.578 192.86 68.3543 193.552 68.9436 194.416L70.648 193.254C69.8621 192.102 68.8278 191.188 67.5632 190.517L66.5964 192.34ZM68.9592 194.438C69.5788 195.298 70.0309 196.323 70.3021 197.533L72.3149 197.082C71.9902 195.633 71.4338 194.344 70.6324 193.232L68.9592 194.438ZM70.3059 197.549C70.6066 198.795 70.7584 200.1 70.7584 201.467H72.8212C72.8212 199.946 72.6521 198.478 72.3111 197.065L70.3059 197.549ZM70.7584 201.467C70.7584 202.798 70.6276 204.04 70.3704 205.197L72.3841 205.645C72.677 204.327 72.8212 202.933 72.8212 201.467H70.7584ZM70.3704 205.197C70.1204 206.323 69.7086 207.302 69.1439 208.149L70.8602 209.294C71.5791 208.215 72.0841 206.995 72.3841 205.645L70.3704 205.197ZM69.1504 208.14C68.6086 208.933 67.8919 209.566 66.9809 210.042L67.9351 211.871C69.1327 211.246 70.1121 210.389 70.8538 209.303L69.1504 208.14ZM66.9809 210.042C66.1125 210.495 64.9809 210.75 63.5387 210.75V212.813C65.2136 212.813 66.6949 212.518 67.9351 211.871L66.9809 210.042ZM63.5387 210.75H58.7944V212.813H63.5387V210.75ZM57.763 211.781V217.97H59.8257V211.781H57.763ZM58.7172 216.941L50.4661 217.56L50.6204 219.617L58.8715 218.998L58.7172 216.941ZM57.763 198.098V206.384H59.8257V198.098H57.763ZM58.7944 207.415H60.0664V205.352H58.7944V207.415ZM60.0664 207.415C61.0962 207.415 62.0173 207.317 62.6738 207.006L61.7908 205.142C61.5764 205.244 61.0535 205.352 60.0664 205.352V207.415ZM62.6556 207.015C63.6576 206.564 63.9513 205.56 63.9513 204.63H61.8885C61.8885 204.915 61.8438 205.058 61.8168 205.115C61.8052 205.14 61.799 205.143 61.8038 205.139C61.8092 205.133 61.8136 205.132 61.8091 205.134L62.6556 207.015ZM63.9513 204.63V196.551H61.8885V204.63H63.9513ZM62.9199 195.52H61.6479V197.583H62.9199V195.52ZM61.6479 195.52C61.0316 195.52 60.5028 195.543 60.076 195.596L60.3318 197.643C60.6385 197.605 61.0722 197.583 61.6479 197.583V195.52ZM60.076 195.596C59.4947 195.669 58.9755 195.911 58.5444 196.307L59.9382 197.827C60.0571 197.718 60.1797 197.662 60.3318 197.643L60.076 195.596ZM58.581 196.274C58.0261 196.737 57.7973 197.387 57.7643 198.047L59.8245 198.15C59.8311 198.017 59.854 197.943 59.8696 197.907C59.883 197.876 59.8938 197.866 59.9016 197.859L58.581 196.274ZM75.0857 218.588H74.0543V219.7L75.1628 219.617L75.0857 218.588ZM75.0857 191.154V190.122H74.0543V191.154H75.0857ZM79.2112 191.154L80.0429 190.544L79.7339 190.122H79.2112V191.154ZM80.7239 193.216L79.8922 193.826L80.7561 195.004L81.577 193.796L80.7239 193.216ZM91.6222 191.429L91.1388 192.34V192.34L91.6222 191.429ZM94.3382 193.835L93.4861 194.416L93.4937 194.427L93.5016 194.438L94.3382 193.835ZM95.8509 197.307L94.8445 197.533L94.8464 197.541L94.8483 197.549L95.8509 197.307ZM95.9197 205.421L94.9129 205.197V205.197L95.9197 205.421ZM94.5445 208.721L95.3963 209.303L95.4027 209.294L94.5445 208.721ZM83.3368 211.781V210.75H82.3054V211.781H83.3368ZM83.3368 217.97L83.4139 218.998L84.3682 218.926V217.97H83.3368ZM83.3368 198.098L82.3067 198.047L82.3054 198.072V198.098H83.3368ZM83.3368 206.384H82.3054V207.415H83.3368V206.384ZM86.7747 206.074L86.3515 205.134L86.3423 205.138L86.3332 205.142L86.7747 206.074ZM87.4623 196.551H88.4937V195.52H87.4623V196.551ZM83.7837 197.067L84.444 197.859L84.4627 197.844L84.4806 197.827L83.7837 197.067ZM76.1171 218.588V191.154H74.0543V218.588H76.1171ZM75.0857 192.185H79.2112V190.122H75.0857V192.185ZM78.3795 191.763L79.8922 193.826L81.5556 192.606L80.0429 190.544L78.3795 191.763ZM81.577 193.796C82.5149 192.416 84.3411 191.566 87.4623 191.566V189.503C84.0285 189.503 81.3624 190.442 79.8708 192.637L81.577 193.796ZM87.4623 191.566C88.9927 191.566 90.2024 191.843 91.1388 192.34L92.1057 190.517C90.796 189.823 89.2324 189.503 87.4623 189.503V191.566ZM91.1388 192.34C92.1204 192.86 92.8968 193.552 93.4861 194.416L95.1904 193.254C94.4045 192.102 93.3702 191.188 92.1057 190.517L91.1388 192.34ZM93.5016 194.438C94.1212 195.298 94.5733 196.323 94.8445 197.533L96.8573 197.082C96.5326 195.633 95.9762 194.344 95.1749 193.232L93.5016 194.438ZM94.8483 197.549C95.149 198.795 95.3008 200.1 95.3008 201.467H97.3636C97.3636 199.946 97.1946 198.478 96.8535 197.065L94.8483 197.549ZM95.3008 201.467C95.3008 202.798 95.17 204.04 94.9129 205.197L96.9265 205.645C97.2194 204.327 97.3636 202.933 97.3636 201.467H95.3008ZM94.9129 205.197C94.6628 206.323 94.251 207.302 93.6863 208.149L95.4027 209.294C96.1215 208.215 96.6265 206.995 96.9265 205.645L94.9129 205.197ZM93.6928 208.14C93.151 208.933 92.4343 209.566 91.5233 210.042L92.4775 211.871C93.6751 211.246 94.6545 210.389 95.3962 209.303L93.6928 208.14ZM91.5233 210.042C90.6549 210.495 89.5233 210.75 88.0812 210.75V212.813C89.756 212.813 91.2373 212.518 92.4775 211.871L91.5233 210.042ZM88.0812 210.75H83.3368V212.813H88.0812V210.75ZM82.3054 211.781V217.97H84.3682V211.781H82.3054ZM83.2596 216.941L75.0086 217.56L75.1628 219.617L83.4139 218.998L83.2596 216.941ZM82.3054 198.098V206.384H84.3682V198.098H82.3054ZM83.3368 207.415H84.6088V205.352H83.3368V207.415ZM84.6088 207.415C85.6387 207.415 86.5597 207.317 87.2162 207.006L86.3332 205.142C86.1188 205.244 85.5959 205.352 84.6088 205.352V207.415ZM87.198 207.015C88.2001 206.564 88.4937 205.56 88.4937 204.63H86.4309C86.4309 204.915 86.3862 205.058 86.3592 205.115C86.3476 205.14 86.3415 205.143 86.3463 205.139C86.3517 205.133 86.356 205.132 86.3515 205.134L87.198 207.015ZM88.4937 204.63V196.551H86.4309V204.63H88.4937ZM87.4623 195.52H86.1903V197.583H87.4623V195.52ZM86.1903 195.52C85.5741 195.52 85.0452 195.543 84.6184 195.596L84.8743 197.643C85.1809 197.605 85.6147 197.583 86.1903 197.583V195.52ZM84.6184 195.596C84.0371 195.669 83.518 195.911 83.0868 196.307L84.4806 197.827C84.5995 197.718 84.7221 197.662 84.8743 197.643L84.6184 195.596ZM83.1234 196.274C82.5685 196.737 82.3397 197.387 82.3067 198.047L84.3669 198.15C84.3735 198.017 84.3964 197.943 84.4121 197.907C84.4255 197.876 84.4362 197.866 84.444 197.859L83.1234 196.274ZM106.504 209.65L107.496 209.366L107.282 208.618H106.504V209.65ZM102.172 209.65L101.171 209.899L101.366 210.681H102.172V209.65ZM97.5653 191.154V190.122H96.2455L96.5645 191.403L97.5653 191.154ZM105.816 191.154L106.833 190.981L106.688 190.122H105.816V191.154ZM108.085 204.562L107.069 204.734L107.214 205.593H108.085V204.562ZM108.498 204.562V205.593H109.37L109.515 204.734L108.498 204.562ZM110.767 191.154V190.122H109.896L109.75 190.981L110.767 191.154ZM119.018 191.154L120.019 191.404L120.339 190.122H119.018V191.154ZM113.861 211.781L114.857 212.051L114.859 212.041L114.862 212.031L113.861 211.781ZM112.589 215.116L111.686 214.617L111.681 214.626L111.676 214.636L112.589 215.116ZM110.973 217.179L110.322 216.379L110.313 216.386L110.305 216.394L110.973 217.179ZM108.807 218.279L108.557 217.278L108.551 217.28L108.807 218.279ZM97.9779 218.588H96.9465V219.62H97.9779V218.588ZM97.9779 213.225L97.7808 212.213L96.9465 212.375V213.225H97.9779ZM101.863 212.469L102.06 213.481L102.077 213.478L102.094 213.474L101.863 212.469ZM105.748 210.991L105.076 210.207L105.07 210.213L105.064 210.218L105.748 210.991ZM106.195 210.509L107.02 211.128V211.128L106.195 210.509ZM106.573 209.89L107.495 210.352L107.675 209.993L107.564 209.607L106.573 209.89ZM106.504 208.618H102.172V210.681H106.504V208.618ZM103.173 209.4L98.5661 190.904L96.5645 191.403L101.171 209.899L103.173 209.4ZM97.5653 192.185H105.816V190.122H97.5653V192.185ZM104.799 191.326L107.069 204.734L109.102 204.389L106.833 190.981L104.799 191.326ZM108.085 205.593H108.498V203.53H108.085V205.593ZM109.515 204.734L111.784 191.326L109.75 190.981L107.481 204.389L109.515 204.734ZM110.767 192.185H119.018V190.122H110.767V192.185ZM118.018 190.903L112.861 211.531L114.862 212.031L120.019 191.404L118.018 190.903ZM112.866 211.511C112.513 212.813 112.115 213.841 111.686 214.617L113.492 215.615C114.026 214.649 114.476 213.454 114.857 212.051L112.866 211.511ZM111.676 214.636C111.268 215.412 110.811 215.981 110.322 216.379L111.625 217.978C112.373 217.369 112.993 216.562 113.502 215.596L111.676 214.636ZM110.305 216.394C109.812 216.813 109.235 217.109 108.557 217.278L109.058 219.28C110.03 219.037 110.897 218.599 111.642 217.964L110.305 216.394ZM108.551 217.28C107.853 217.459 107.003 217.557 105.988 217.557V219.62C107.128 219.62 108.157 219.511 109.064 219.278L108.551 217.28ZM105.988 217.557H97.9779V219.62H105.988V217.557ZM99.0093 218.588V213.225H96.9465V218.588H99.0093ZM98.175 214.238L102.06 213.481L101.666 211.456L97.7808 212.213L98.175 214.238ZM102.094 213.474C103.117 213.239 103.989 212.989 104.696 212.719C105.387 212.457 105.995 212.148 106.431 211.763L105.064 210.218C104.904 210.36 104.567 210.562 103.963 210.792C103.375 211.015 102.602 211.241 101.632 211.464L102.094 213.474ZM106.419 211.774C106.641 211.583 106.841 211.367 107.02 211.128L105.369 209.89C105.273 210.019 105.175 210.123 105.076 210.207L106.419 211.774ZM107.02 211.128C107.198 210.89 107.356 210.63 107.495 210.352L105.65 209.429C105.56 209.609 105.466 209.762 105.369 209.89L107.02 211.128ZM107.564 209.607L107.496 209.366L105.512 209.933L105.581 210.174L107.564 209.607ZM144.591 203.083H145.622V202.052H144.591V203.083ZM142.493 203.083H141.462V204.115H142.493V203.083ZM142.493 196.757V195.726H141.462V196.757H142.493ZM152.429 196.757H153.461V195.726H152.429V196.757ZM152.429 210.544L152.796 211.508L153.461 211.255V210.544H152.429ZM136.305 211.541L135.949 212.509L135.954 212.51L136.305 211.541ZM132.592 208.997L131.787 209.641L131.793 209.649L132.592 208.997ZM130.667 204.768L129.656 204.973L129.658 204.981L129.659 204.989L130.667 204.768ZM130.804 192.735L131.803 192.991L131.804 192.988L130.804 192.735ZM132.97 188.541L133.723 189.246L133.731 189.238L132.97 188.541ZM136.993 186.134L136.695 185.147L136.993 186.134ZM145.141 185.481L145.044 186.508L145.061 186.509L145.078 186.51L145.141 185.481ZM147.41 185.722L147.255 186.741L147.27 186.744L147.286 186.745L147.41 185.722ZM149.541 186.065L149.332 187.075L149.352 187.079L149.372 187.083L149.541 186.065ZM151.191 186.444L152.204 186.642L152.378 185.752L151.518 185.465L151.191 186.444ZM149.954 192.769L149.788 193.787L150.774 193.948L150.966 192.967L149.954 192.769ZM146.757 192.357L146.64 193.382L146.652 193.383L146.663 193.384L146.757 192.357ZM139.021 205.937H137.99V206.968H139.021V205.937ZM143.903 205.627L144.345 206.559L144.354 206.555L144.364 206.55L143.903 205.627ZM145.622 204.183V203.083H143.559V204.183H145.622ZM144.591 202.052H142.493V204.115H144.591V202.052ZM143.525 203.083V196.757H141.462V203.083H143.525ZM142.493 197.789H152.429V195.726H142.493V197.789ZM151.398 196.757V210.544H153.461V196.757H151.398ZM152.063 209.58C148.926 210.772 145.67 211.369 142.287 211.369V213.431C145.918 213.431 149.423 212.79 152.796 211.508L152.063 209.58ZM142.287 211.369C139.953 211.369 138.088 211.09 136.656 210.571L135.954 212.51C137.685 213.138 139.808 213.431 142.287 213.431V211.369ZM136.661 210.573C135.25 210.054 134.175 209.305 133.391 208.344L131.793 209.649C132.843 210.935 134.243 211.881 135.949 212.509L136.661 210.573ZM133.398 208.352C132.595 207.349 132.013 206.091 131.674 204.547L129.659 204.989C130.054 206.791 130.756 208.352 131.787 209.641L133.398 208.352ZM131.678 204.563C131.351 202.951 131.183 201.051 131.183 198.855H129.12C129.12 201.15 129.295 203.193 129.656 204.973L131.678 204.563ZM131.183 198.855C131.183 196.529 131.396 194.58 131.803 192.991L129.805 192.478C129.342 194.282 129.12 196.413 129.12 198.855H131.183ZM131.804 192.988C132.205 191.404 132.856 190.172 133.723 189.246L132.217 187.836C131.068 189.064 130.274 190.628 129.805 192.482L131.804 192.988ZM133.731 189.238C134.594 188.296 135.764 187.582 137.29 187.122L136.695 185.147C134.875 185.695 133.364 186.585 132.21 187.844L133.731 189.238ZM137.29 187.122C138.836 186.656 140.803 186.409 143.215 186.409V184.346C140.678 184.346 138.496 184.604 136.695 185.147L137.29 187.122ZM143.215 186.409C143.725 186.409 144.333 186.441 145.044 186.508L145.237 184.454C144.481 184.383 143.806 184.346 143.215 184.346V186.409ZM145.078 186.51C145.803 186.554 146.529 186.631 147.255 186.741L147.564 184.702C146.778 184.583 145.991 184.499 145.203 184.451L145.078 186.51ZM147.286 186.745C148.017 186.834 148.699 186.944 149.332 187.075L149.75 185.055C149.054 184.911 148.315 184.792 147.534 184.698L147.286 186.745ZM149.372 187.083C150.034 187.193 150.525 187.309 150.865 187.422L151.518 185.465C151.033 185.304 150.424 185.167 149.711 185.048L149.372 187.083ZM150.179 186.246L148.942 192.571L150.966 192.967L152.204 186.642L150.179 186.246ZM150.12 191.751C148.976 191.565 147.885 191.424 146.85 191.33L146.663 193.384C147.644 193.473 148.686 193.607 149.788 193.787L150.12 191.751ZM146.873 191.332C145.832 191.214 144.853 191.154 143.937 191.154V193.216C144.764 193.216 145.664 193.271 146.64 193.382L146.873 191.332ZM143.937 191.154C142.123 191.154 140.684 191.285 139.759 191.632L140.483 193.563C141.026 193.36 142.13 193.216 143.937 193.216V191.154ZM139.759 191.632C139.228 191.831 138.762 192.158 138.438 192.644C138.117 193.126 137.99 193.682 137.99 194.248H140.053C140.053 193.988 140.109 193.856 140.154 193.788C140.197 193.725 140.281 193.639 140.483 193.563L139.759 191.632ZM137.99 194.248V205.937H140.053V194.248H137.99ZM139.021 206.968H141.737V204.905H139.021V206.968ZM141.737 206.968C142.767 206.968 143.688 206.87 144.345 206.559L143.461 204.695C143.247 204.797 142.724 204.905 141.737 204.905V206.968ZM144.364 206.55C145.316 206.074 145.622 205.116 145.622 204.183H143.559C143.559 204.451 143.516 204.591 143.488 204.651C143.467 204.693 143.457 204.697 143.442 204.705L144.364 206.55ZM157.886 193.251L158.63 193.966L158.634 193.961L157.886 193.251ZM174.595 193.251L173.847 193.961L173.851 193.966L174.595 193.251ZM174.595 209.718L175.338 210.433L175.343 210.429L174.595 209.718ZM157.955 209.753L157.226 210.482L157.955 209.753ZM164.178 206.384H163.146V207.415H164.178V206.384ZM167.615 206.074L167.192 205.134L167.183 205.138L167.174 205.142L167.615 206.074ZM168.303 196.551H169.334V195.52H168.303V196.551ZM164.831 196.861L164.408 195.92L164.398 195.924L164.389 195.928L164.831 196.861ZM156.339 201.467C156.339 197.916 157.168 195.485 158.63 193.966L157.143 192.536C155.166 194.592 154.276 197.639 154.276 201.467H156.339ZM158.634 193.961C160.074 192.444 162.522 191.566 166.24 191.566V189.503C162.258 189.503 159.136 190.436 157.138 192.541L158.634 193.961ZM166.24 191.566C169.959 191.566 172.406 192.444 173.847 193.961L175.343 192.541C173.345 190.436 170.223 189.503 166.24 189.503V191.566ZM173.851 193.966C175.312 195.485 176.142 197.916 176.142 201.467H178.204C178.204 197.639 177.315 194.592 175.338 192.536L173.851 193.966ZM176.142 201.467C176.142 205.018 175.313 207.464 173.847 209.008L175.343 210.429C177.314 208.352 178.204 205.297 178.204 201.467H176.142ZM173.851 209.004C172.411 210.501 169.962 211.369 166.24 211.369V213.431C170.219 213.431 173.34 212.512 175.338 210.433L173.851 209.004ZM166.24 211.369C162.618 211.369 160.177 210.516 158.684 209.024L157.226 210.482C159.263 212.519 162.345 213.431 166.24 213.431V211.369ZM158.684 209.024C157.192 207.531 156.339 205.089 156.339 201.467H154.276C154.276 205.363 155.188 208.445 157.226 210.482L158.684 209.024ZM163.146 198.304V206.384H165.209V198.304H163.146ZM164.178 207.415H165.45V205.352H164.178V207.415ZM165.45 207.415C166.479 207.415 167.4 207.317 168.057 207.006L167.174 205.142C166.96 205.244 166.437 205.352 165.45 205.352V207.415ZM168.039 207.015C169.041 206.564 169.334 205.56 169.334 204.63H167.272C167.272 204.915 167.227 205.058 167.2 205.115C167.188 205.14 167.182 205.143 167.187 205.139C167.192 205.133 167.197 205.132 167.192 205.134L168.039 207.015ZM169.334 204.63V196.551H167.272V204.63H169.334ZM168.303 195.52H167.031V197.583H168.303V195.52ZM167.031 195.52C165.994 195.52 165.076 195.619 164.408 195.92L165.254 197.801C165.503 197.689 166.051 197.583 167.031 197.583V195.52ZM164.389 195.928C163.412 196.391 163.146 197.401 163.146 198.304H165.209C165.209 198.014 165.252 197.864 165.281 197.801C165.293 197.774 165.299 197.77 165.293 197.777C165.285 197.785 165.276 197.791 165.272 197.793L164.389 195.928ZM200.139 211.781V212.813H201.17V211.781H200.139ZM196.013 211.781L195.284 212.511L195.586 212.813H196.013V211.781ZM193.675 209.443L194.405 208.714L193.636 207.945L192.909 208.753L193.675 209.443ZM192.197 210.681L191.641 209.812L191.633 209.818L191.625 209.823L192.197 210.681ZM188.45 212.194L188.659 213.204L188.45 212.194ZM183.362 212.022L183.629 211.026L183.62 211.023L183.612 211.021L183.362 212.022ZM181.024 210.887L181.678 210.09L181.024 210.887ZM179.545 208.79L180.505 208.412L179.545 208.79ZM191.888 198.167V199.198H192.919V198.167H191.888ZM191.888 196.689H192.919V195.71L191.942 195.659L191.888 196.689ZM190.684 196.62L190.616 197.649L190.62 197.649L190.684 196.62ZM181.711 197.72L180.694 197.892L180.895 199.083L182.04 198.697L181.711 197.72ZM180.714 191.807L180.41 190.821L179.547 191.087L179.697 191.978L180.714 191.807ZM187.35 206.384H186.318V207.415H187.35V206.384ZM191.406 205.971L192.025 206.796L192.069 206.764L192.108 206.727L191.406 205.971ZM191.888 202.946H192.919V201.914H191.888V202.946ZM188.037 203.255L187.614 202.315L188.037 203.255ZM190.237 191.566C193.452 191.566 195.68 192.124 197.079 193.086C198.409 194.001 199.107 195.36 199.107 197.342H201.17C201.17 194.786 200.219 192.741 198.248 191.387C196.347 190.08 193.624 189.503 190.237 189.503V191.566ZM199.107 197.342V211.781H201.17V197.342H199.107ZM200.139 210.75H196.013V212.813H200.139V210.75ZM196.743 211.052L194.405 208.714L192.946 210.173L195.284 212.511L196.743 211.052ZM192.909 208.753C192.564 209.136 192.144 209.49 191.641 209.812L192.753 211.55C193.396 211.138 193.962 210.667 194.442 210.133L192.909 208.753ZM191.625 209.823C191.139 210.147 190.608 210.423 190.032 210.649L190.786 212.569C191.494 212.291 192.155 211.948 192.769 211.539L191.625 209.823ZM190.032 210.649C189.444 210.88 188.847 211.058 188.241 211.184L188.659 213.204C189.382 213.054 190.091 212.843 190.786 212.569L190.032 210.649ZM188.241 211.184C187.638 211.308 187.067 211.369 186.524 211.369V213.431C187.22 213.431 187.932 213.354 188.659 213.204L188.241 211.184ZM186.524 211.369C185.428 211.369 184.466 211.25 183.629 211.026L183.094 213.018C184.137 213.298 185.283 213.431 186.524 213.431V211.369ZM183.612 211.021C182.823 210.824 182.187 210.508 181.678 210.09L180.369 211.684C181.144 212.321 182.067 212.761 183.111 213.022L183.612 211.021ZM181.678 210.09C181.189 209.688 180.793 209.141 180.505 208.412L178.586 209.169C178.986 210.182 179.575 211.032 180.369 211.684L181.678 210.09ZM180.505 208.412C180.222 207.695 180.061 206.766 180.061 205.593H177.998C177.998 206.941 178.181 208.144 178.586 209.169L180.505 208.412ZM180.061 205.593C180.061 203.421 180.856 201.907 182.401 200.883C184.022 199.81 186.583 199.198 190.237 199.198V197.136C186.42 197.136 183.378 197.762 181.262 199.164C179.072 200.615 177.998 202.814 177.998 205.593H180.061ZM190.237 199.198H191.888V197.136H190.237V199.198ZM192.919 198.167V196.689H190.856V198.167H192.919ZM191.942 195.659C191.509 195.636 191.112 195.613 190.749 195.591L190.62 197.649C190.991 197.672 191.395 197.696 191.833 197.719L191.942 195.659ZM190.753 195.591C190.39 195.567 190.046 195.554 189.722 195.554V197.617C189.994 197.617 190.291 197.627 190.616 197.649L190.753 195.591ZM189.722 195.554C186.548 195.554 183.761 195.941 181.382 196.743L182.04 198.697C184.154 197.986 186.707 197.617 189.722 197.617V195.554ZM182.728 197.549L181.731 191.635L179.697 191.978L180.694 197.892L182.728 197.549ZM181.018 192.792C183.649 191.981 186.718 191.566 190.237 191.566V189.503C186.561 189.503 183.28 189.936 180.41 190.821L181.018 192.792ZM186.318 204.699V206.384H188.381V204.699H186.318ZM187.35 207.415H189.069V205.352H187.35V207.415ZM189.069 207.415C189.698 207.415 190.256 207.379 190.726 207.296C191.175 207.217 191.65 207.078 192.025 206.796L190.788 205.146C190.796 205.14 190.698 205.207 190.368 205.265C190.059 205.319 189.631 205.352 189.069 205.352V207.415ZM192.108 206.727C192.625 206.247 192.919 205.624 192.919 204.905H190.856C190.856 205.012 190.83 205.099 190.705 205.215L192.108 206.727ZM192.919 204.905V202.946H190.856V204.905H192.919ZM191.888 201.914H190.203V203.977H191.888V201.914ZM190.203 201.914C189.185 201.914 188.28 202.015 187.614 202.315L188.46 204.196C188.711 204.083 189.25 203.977 190.203 203.977V201.914ZM187.614 202.315C186.612 202.766 186.318 203.77 186.318 204.699H188.381C188.381 204.414 188.426 204.271 188.453 204.214C188.464 204.19 188.47 204.186 188.466 204.191C188.46 204.196 188.456 204.198 188.46 204.196L187.614 202.315ZM204.666 196.482H205.698V195.451H204.666V196.482ZM202.603 196.482H201.572V197.514H202.603V196.482ZM202.603 191.154V190.122H201.572V191.154H202.603ZM204.666 191.154V192.185H205.698V191.154H204.666ZM204.666 187.853L204.416 186.853L203.635 187.048V187.853H204.666ZM212.917 185.79H213.949V184.469L212.667 184.79L212.917 185.79ZM212.917 191.154H211.886V192.185H212.917V191.154ZM215.771 191.154H216.802V190.122H215.771V191.154ZM215.771 196.482V197.514H216.802V196.482H215.771ZM212.917 196.482V195.451H211.886V196.482H212.917ZM212.917 205.868H211.886V206.714L212.715 206.879L212.917 205.868ZM214.052 206.074L213.882 207.092L213.91 207.096L213.938 207.099L214.052 206.074ZM215.358 206.177L216.388 206.242L216.453 205.199L215.41 205.147L215.358 206.177ZM214.98 212.228V213.26H215.949L216.009 212.293L214.98 212.228ZM207.623 211.609L207.972 210.639L207.97 210.638L207.623 211.609ZM205.422 210.303L204.662 211L204.67 211.008L204.677 211.016L205.422 210.303ZM204.666 195.451H202.603V197.514H204.666V195.451ZM203.635 196.482V191.154H201.572V196.482H203.635ZM202.603 192.185H204.666V190.122H202.603V192.185ZM205.698 191.154V187.853H203.635V191.154H205.698ZM204.916 188.854L213.167 186.791L212.667 184.79L204.416 186.853L204.916 188.854ZM211.886 185.79V191.154H213.949V185.79H211.886ZM212.917 192.185H215.771V190.122H212.917V192.185ZM214.739 191.154V196.482H216.802V191.154H214.739ZM215.771 195.451H212.917V197.514H215.771V195.451ZM211.886 196.482V205.868H213.949V196.482H211.886ZM212.715 206.879C213.071 206.951 213.461 207.021 213.882 207.092L214.221 205.057C213.818 204.99 213.451 204.923 213.119 204.857L212.715 206.879ZM213.938 207.099C214.373 207.148 214.83 207.184 215.307 207.207L215.41 205.147C214.97 205.125 214.555 205.092 214.166 205.049L213.938 207.099ZM214.329 206.113L213.951 212.164L216.009 212.293L216.388 206.242L214.329 206.113ZM214.98 211.197C213.116 211.197 211.595 211.146 210.408 211.046C209.2 210.944 208.412 210.797 207.972 210.639L207.273 212.58C207.979 212.834 208.991 212.997 210.235 213.101C211.501 213.208 213.085 213.26 214.98 213.26V211.197ZM207.97 210.638C207.101 210.328 206.526 209.964 206.168 209.59L204.677 211.016C205.328 211.696 206.219 212.203 207.276 212.581L207.97 210.638ZM206.183 209.606C205.913 209.312 205.698 208.799 205.698 207.896H203.635C203.635 209.102 203.923 210.194 204.662 211L206.183 209.606ZM205.698 207.896V196.482H203.635V207.896H205.698Z" fill="black" mask="url(#path-1-inside-1_930_16408)"/>
<path d="M92.5747 1.25276C114.429 -2.38957 132.672 2.7704 139.062 5.80567C116.442 10.79 97.6867 36.1584 91.1369 48.2195C84.2356 50.3282 77.7178 56.4467 75.3215 59.2424L68.1327 68.1086L58.5476 77.454C53.5634 82.0548 55.5124 85.6013 57.1099 86.7994V93.7486L63.3402 98.7808H66.9346C95.8815 98.2057 99.9232 109.564 98.3257 115.315C91.6161 135.252 65.8163 146.307 53.7551 149.342C38.9941 137.648 30.8308 118.909 28.5943 111.002C17.0922 80.5212 29.8723 49.8969 37.7001 38.3948C53.6114 13.6653 80.9128 3.32949 92.5747 1.25276Z" fill="#FF7D01"/>
<path d="M123.487 25.6946C141.89 5.37424 167.258 8.44146 177.642 12.5151C164.223 11.7483 158.153 13.9529 156.795 15.151C195.902 41.7975 196.573 84.5629 192.02 102.615C180.326 147.09 149.286 162.681 135.228 164.918C146.347 134.054 135.388 103.334 128.519 91.8316C124.493 76.6872 118.055 64.1148 115.339 59.7216C120.707 58.5714 127.64 53.8108 130.436 51.5743L131.155 50.6158L107.911 49.8969C106.233 53.3316 103.837 58.0921 107.671 49.6573C111.505 41.2224 119.812 30.1676 123.487 25.6946Z" fill="#FF7D01"/>
<path d="M92.5747 1.25276C114.429 -2.38957 132.672 2.7704 139.062 5.80567C116.442 10.79 97.6867 36.1584 91.1369 48.2195C84.2356 50.3282 77.7178 56.4467 75.3215 59.2424L68.1327 68.1086L58.5476 77.454C53.5634 82.0548 55.5124 85.6013 57.1099 86.7994V93.7486L63.3402 98.7808H66.9346C95.8815 98.2057 99.9232 109.564 98.3257 115.315C91.6161 135.252 65.8163 146.307 53.7551 149.342C38.9941 137.648 30.8308 118.909 28.5943 111.002C17.0922 80.5212 29.8723 49.8969 37.7001 38.3948C53.6114 13.6653 80.9129 3.32949 92.5747 1.25276Z" fill="white"/>
</svg>
